<svg viewBox="0 0 576 512" width="576" height="512" xmlns="http://www.w3.org/2000/svg">
  <path fill="#fff" d="M420.55,301.93a24,24,0,1,1,24-24,24,24,0,0,1-24,24m-265.1,0a24,24,0,1,1,24-24,24,24,0,0,1-24,24m273.7-144.48,47.94-83a10,10,0,1,0-17.27-10h0l-48.54,84.07a301.25,301.25,0,0,0-246.56,0L116.18,64.45a10,10,0,1,0-17.27,10h0l47.94,83C64.53,202.22,8.24,285.55,0,384H576c-8.24-98.45-64.54-181.78-146.85-226.55" />
  <g transform="matrix(0.019219, 0, -0.000035, -0.019219, 5.286354, 512.197815)" fill="#000000" stroke="none" style="">
    <path fill="#fff" d="M23735 6519 c-81 -12 -117 -25 -209 -72 -144 -74 -264 -220 -309 -374 -97 -330 117 -689 463 -778 49 -13 93 -16 175 -13 93 4 122 10 190 36 427 169 532 739 193 1047 -135 121 -329 181 -503 154z" />
    <path fill="#fff" d="M13430 5135 c0 -740 -3 -1345 -7 -1345 -5 0 -21 19 -38 41 -55 75 -221 225 -327 296 -658 440 -1533 398 -2193 -106 -84 -64 -266 -242 -338 -331 -345 -427 -520 -963 -504 -1540 11 -367 77 -644 227 -958 299 -621 835 -1038 1480 -1153 635 -112 1281 109 1662 571 l38 45 0 -186 c0 -143 4 -196 16 -232 22 -64 88 -122 155 -136 30 -7 191 -11 404 -11 l355 0 0 3195 0 3195 -465 0 -465 0 0 -1345z m-1058 -1556 c294 -32 539 -147 739 -348 184 -184 300 -405 361 -684 19 -88 22 -132 22 -322 0 -190 -3 -234 -22 -322 -104 -476 -396 -826 -812 -971 -145 -50 -247 -66 -425 -66 -227 0 -386 35 -569 125 -175 87 -336 224 -445 379 -304 432 -344 1062 -99 1543 167 326 439 545 787 633 160 41 299 51 463 33z" />
    <path fill="#fff" d="M28477 6473 c-4 -3 -7 -610 -7 -1347 l0 -1341 -27 35 c-182 235 -488 435 -817 534 -353 107 -763 100 -1125 -20 -766 -254 -1316 -967 -1417 -1840 -22 -188 -15 -499 15 -669 56 -316 149 -569 303 -825 93 -154 176 -260 317 -401 303 -304 648 -485 1064 -561 99 -18 160 -22 327 -23 215 0 275 7 455 52 325 81 647 274 844 505 l66 78 5 -202 c6 -227 8 -237 78 -300 60 -54 96 -58 497 -58 l355 0 0 3195 0 3195 -463 0 c-255 0 -467 -3 -470 -7z m-952 -2908 c234 -41 456 -156 625 -324 188 -187 308 -417 371 -711 31 -143 34 -444 5 -595 -91 -488 -398 -863 -822 -1004 -250 -83 -506 -91 -763 -25 -436 114 -762 458 -881 929 -89 351 -54 731 95 1043 69 143 139 246 240 347 287 291 700 415 1130 340z" />
    <path fill="#fff" d="M1840 4420 c-518 -63 -986 -323 -1316 -733 -267 -331 -431 -723 -489 -1170 -17 -137 -20 -423 -4 -565 44 -406 198 -804 436 -1127 84 -114 312 -342 423 -424 249 -184 535 -308 840 -363 91 -17 158 -21 325 -22 220 -1 278 5 460 51 328 82 669 288 854 518 l61 76 0 -198 c0 -226 7 -251 77 -314 61 -55 96 -59 498 -59 l355 0 0 2130 0 2130 -467 -2 -468 -3 -5 -278 -5 -279 -23 32 c-49 66 -161 176 -247 243 -220 170 -498 292 -780 343 -106 19 -415 27 -525 14z m650 -860 c511 -99 882 -495 987 -1053 27 -141 24 -458 -5 -593 -63 -295 -189 -532 -376 -712 -174 -167 -365 -266 -616 -318 -128 -27 -381 -25 -518 4 -195 42 -347 112 -498 228 -246 188 -416 481 -480 829 -26 136 -26 431 -1 560 58 297 181 541 366 725 207 205 469 325 771 354 82 7 273 -5 370 -24z" />
    <path fill="#fff" d="M7475 4424 c-231 -33 -345 -62 -492 -124 -242 -103 -451 -272 -582 -469 l-36 -54 -3 286 -2 287 -465 0 -465 0 0 -2033 c0 -2287 -7 -2093 77 -2166 30 -27 60 -43 94 -50 30 -7 191 -11 404 -11 l355 0 0 1079 c0 657 4 1128 10 1207 32 395 164 711 383 921 136 130 265 202 446 250 82 22 119 26 251 27 187 1 258 -14 406 -84 244 -117 401 -348 471 -693 15 -73 17 -220 22 -1317 l6 -1235 24 -42 c30 -52 80 -88 141 -102 26 -6 195 -11 403 -11 l358 0 -4 1407 c-3 1287 -4 1417 -20 1513 -69 407 -208 711 -437 953 -215 227 -497 377 -823 438 -108 20 -440 35 -522 23z" />
    <path fill="#fff" d="M20120 4419 c-775 -85 -1429 -543 -1760 -1232 -101 -211 -157 -391 -197 -632 -25 -153 -25 -515 0 -670 50 -320 161 -614 328 -870 98 -151 166 -234 298 -365 337 -334 752 -540 1241 -617 161 -25 519 -25 680 0 994 156 1727 894 1865 1877 24 168 24 453 0 615 -93 643 -434 1187 -964 1540 -251 167 -539 278 -866 336 -138 24 -481 34 -625 18z m485 -875 c572 -93 992 -584 1033 -1206 48 -717 -358 -1291 -1011 -1429 -144 -31 -380 -31 -524 0 -311 66 -564 225 -747 468 -122 163 -213 378 -252 598 -23 131 -24 376 -1 500 37 205 111 392 217 551 106 158 294 321 475 412 227 113 524 152 810 106z" />
    <path fill="#fff" d="M17365 4384 c-309 -48 -539 -165 -741 -375 -99 -104 -152 -182 -215 -313 l-48 -101 -1 378 0 377 -465 0 -465 0 0 -2042 c0 -1966 1 -2045 19 -2084 22 -49 78 -97 130 -113 26 -7 160 -11 409 -11 l371 0 4 1163 c4 1290 0 1212 72 1443 102 326 294 557 568 684 117 54 193 71 344 77 146 6 248 -5 391 -43 52 -13 98 -24 103 -24 6 0 8 191 7 477 l-3 478 -65 12 c-68 13 -363 25 -415 17z" />
    <path fill="#fff" d="M23367 4343 c-12 -12 -8 -4039 4 -4087 14 -55 59 -110 112 -139 41 -21 51 -22 425 -25 l382 -3 0 2130 0 2131 -458 0 c-252 0 -462 -3 -465 -7z" />
  </g>
</svg>